<svg width="18" height="18" viewBox="0 0 18 18" fill="none" xmlns="http://www.w3.org/2000/svg">
<path d="M3.75195 16.5H6.75195H11.252H14.252C15.0792 16.5 15.752 15.8273 15.752 15V8.25C15.752 8.05125 15.6732 7.86 15.5322 7.71975L9.5322 1.71975C9.23895 1.4265 8.76495 1.4265 8.4717 1.71975L2.4717 7.71975C2.3307 7.86 2.25195 8.05125 2.25195 8.25V15C2.25195 15.8273 2.9247 16.5 3.75195 16.5ZM7.50195 15V11.25H10.502V15H7.50195ZM3.75195 8.5605L9.00195 3.3105L14.252 8.5605L14.2527 15H12.002V11.25C12.002 10.4228 11.3292 9.75 10.502 9.75H7.50195C6.6747 9.75 6.00195 10.4228 6.00195 11.25V15H3.75195V8.5605Z" fill="#9397AD"/>
</svg>
